<svg width="199" height="199" viewBox="0 0 199 199" fill="none" xmlns="http://www.w3.org/2000/svg">
<g clip-path="url(#clip0)">
<path d="M192.408 35.6131C193.983 37.1491 194.865 39.2588 194.854 41.4587V157.542C194.865 159.742 193.983 161.851 192.408 163.387L174.125 145.104L120.561 91.54L190.708 37.3128L192.408 35.6131Z" fill="#FFCA19"/>
<path d="M24.8753 145.104L6.63383 163.345L6.59224 163.387C5.01735 161.851 4.13468 159.741 4.14634 157.541V41.4587C4.13584 39.8041 4.62751 38.1849 5.55604 36.8152L8.29228 37.3127L78.4395 91.54L24.8753 145.104Z" fill="#FFCA19"/>
<path d="M6.63382 163.346L24.8753 145.104L78.4391 91.5404L99.5 107.792L120.561 91.5404L174.125 145.104L192.408 163.387C190.872 164.962 188.762 165.845 186.562 165.833H12.4378C10.238 165.845 8.12826 164.962 6.59223 163.387L6.63382 163.346Z" fill="#FFCA19"/>
<path d="M186.562 33.1668C188.762 33.1551 190.872 34.0382 192.408 35.6127L190.708 37.3124L120.561 91.5396L99.5 107.791L78.4391 91.5396L8.29189 37.3127L5.55565 36.8153C7.10256 34.533 9.68061 33.1664 12.4378 33.1668H186.562Z" fill="#FFCA19"/>
<path d="M195.376 32.719C193.063 30.3392 189.881 29.0041 186.562 29.0208H12.4378C8.309 29.0173 4.44756 31.0629 2.13147 34.4809C0.731478 36.5373 -0.0116596 38.9704 0.000389194 41.4583V157.541C-0.0264291 160.825 1.28145 163.979 3.62396 166.281C5.93694 168.66 9.11937 169.995 12.4378 169.979H186.562C193.415 169.94 198.961 164.394 199 157.541V41.4587C199.026 38.1748 197.719 35.0208 195.376 32.719ZM99.5 102.555L15.0703 37.3127H183.929L99.5 102.555ZM189.439 160.493C188.683 161.267 187.644 161.698 186.562 161.687H12.4378C11.3196 161.69 10.25 161.231 9.482 160.419C8.71321 159.66 8.28412 158.622 8.29228 157.541V42.5489L72.1916 91.9256L21.9443 142.173L27.8066 148.035L78.8002 97.0417L96.9632 111.079C98.4556 112.231 100.537 112.231 102.029 111.079L120.192 97.0417L171.186 148.035L177.048 142.173L126.801 91.9256L190.709 42.5489V157.541C190.71 158.658 190.251 159.726 189.439 160.493Z" fill="black"/>
</g>
<defs>
<clipPath id="clip0">
<rect width="199" height="199" fill="white"/>
</clipPath>
</defs>
</svg>
